# xmcd
#
# Track frame offsets: 
#        150
#        19706
#        42994
#        64190
#        84957
#        107332
#        125493
#        149088
#        167257
#        186746
#        202575
#        223634
#        231334
#        261043
#        281777
#        304663
#
# Disc length: 4353 seconds
#
# Revision: 0
# Processed by: cddbd v1.4PL0 Copyright (c) Steve Scherf et al.
# Submitted via: ExactAudioCopy v0.90b4
#
DISCID=e310ff10
DTITLE=Omar Chocolate y su salsa loca - Se Me Para El Corazon
DYEAR=2002
DGENRE=Salsa
TTITLE0=Omar Chocolate - Se me para el Curazon (Radio)
TTITLE1=Omar Chocolate - Cachita (Radio)
TTITLE2=Omar Chocolate - Papampan pan
TTITLE3=Omar Chocolate - El Pais de los Suenos (Radio)
TTITLE4=Omar Chocolate - 2 on 1 Cha cha cha y el Bodeguero
TTITLE5=Omar Chocolate - Vacaciones sin ti (Radio)
TTITLE6=Omar Chocolate - Lagrimas Negras
TTITLE7=Omar Chocolate - Juana Lengua (Radio)
TTITLE8=Omar Chocolate - La Satira del Guerno (Radio)
TTITLE9=Omar Chocolate - Moliendo Cafe (Radio)
TTITLE10=Omar Chocolate - Bilongo (La negra Tomasa)
TTITLE11=Omar Chocolate - Bailalocomo quiera
TTITLE12=Omar Chocolate - Se me para l Corazon (Original)
TTITLE13=Omar Chocolate - El Pais de los Suenos (Orignial)
TTITLE14=Omar Chocolate - Vacaciones sin ti (Original)
TTITLE15=Omar Chocolate - Moliendo Cafe (Original)
EXTD=
EXTT0=
EXTT1=
EXTT2=
EXTT3=
EXTT4=
EXTT5=
EXTT6=
EXTT7=
EXTT8=
EXTT9=
EXTT10=
EXTT11=
EXTT12=
EXTT13=
EXTT14=
EXTT15=
PLAYORDER=
